<svg version="1.2" preserveAspectRatio="xMidYMid meet" viewBox="660.2294713160856 379.7279967184 121.48481439820021 92.339999202" zoomAndPan="magnify" xmlns:xlink="http://www.w3.org/1999/xlink" xmlns="http://www.w3.org/2000/svg" style="max-height: 500px" width="121.48481439820021" height="92.339999202"><defs><clipPath id="63440cd996"><path d="M 662.828125 388.59375 L 776.828125 388.59375 L 776.828125 462.84375 L 662.828125 462.84375 Z M 662.828125 388.59375"/></clipPath><clipPath id="6264548c0d"><path d="M 676 442 L 751 442 L 751 462.84375 L 676 462.84375 Z M 676 442"/></clipPath><clipPath id="94de1f34f9"><path d="M 662.828125 422 L 683 422 L 683 457 L 662.828125 457 Z M 662.828125 422"/></clipPath><clipPath id="6964c6c09f"><path d="M 716 388.59375 L 724 388.59375 L 724 409 L 716 409 Z M 716 388.59375"/></clipPath><clipPath id="d058b7b6f3"><path d="M 756 388.59375 L 764 388.59375 L 764 396 L 756 396 Z M 756 388.59375"/></clipPath><clipPath id="416fe7a179"><path d="M 770 408 L 776.828125 408 L 776.828125 423 L 770 423 Z M 770 408"/></clipPath></defs><g id="219a5ca21e"><g clip-path="url(#63440cd996)" clip-rule="nonzero"><path d="M 770.121094 408.847656 L 770.121094 388.605469 L 756.710938 388.605469 L 756.710938 395.351562 L 750.003906 395.351562 L 750.003906 402.101562 L 736.59375 402.101562 L 736.59375 395.351562 L 729.886719 395.351562 L 729.886719 388.605469 L 716.476562 388.605469 L 716.476562 408.847656 L 709.769531 408.847656 L 709.769531 422.34375 L 716.476562 422.34375 L 716.476562 429.09375 L 696.359375 429.09375 L 696.359375 435.839844 L 689.652344 435.839844 L 689.652344 442.589844 L 682.945312 442.589844 L 682.945312 429.09375 L 689.652344 429.09375 L 689.652344 422.34375 L 696.359375 422.34375 L 696.359375 415.597656 L 689.652344 415.597656 L 689.652344 408.847656 L 676.242188 408.847656 L 676.242188 415.597656 L 669.535156 415.597656 L 669.535156 422.34375 L 662.828125 422.34375 L 662.828125 449.339844 L 669.535156 449.339844 L 669.535156 456.085938 L 676.242188 456.085938 L 676.242188 462.835938 L 750.003906 462.835938 L 750.003906 456.085938 L 756.710938 456.085938 L 756.710938 449.339844 L 750.003906 449.339844 L 750.003906 442.589844 L 756.710938 442.589844 L 756.710938 435.839844 L 763.417969 435.839844 L 763.417969 429.09375 L 770.121094 429.09375 L 770.121094 422.34375 L 776.828125 422.34375 L 776.828125 408.847656 Z M 770.121094 408.847656" style="stroke:none;fill-rule:nonzero;fill:#ffbbea;fill-opacity:1;"/></g><path d="M 703.0625 442.589844 L 716.476562 442.589844 L 716.476562 449.339844 L 703.0625 449.339844 Z M 703.0625 442.589844" style="stroke:none;fill-rule:nonzero;fill:#57bbff;fill-opacity:1;"/><path d="M 716.476562 449.339844 L 723.179688 449.339844 L 723.179688 456.085938 L 716.476562 456.085938 Z M 716.476562 449.339844" style="stroke:none;fill-rule:nonzero;fill:#57bbff;fill-opacity:1;"/><path d="M 676.242188 408.847656 L 689.652344 408.847656 L 689.652344 415.597656 L 676.242188 415.597656 Z M 676.242188 408.847656" style="stroke:none;fill-rule:nonzero;fill:#57bbff;fill-opacity:1;"/><path d="M 689.652344 415.597656 L 696.359375 415.597656 L 696.359375 422.34375 L 689.652344 422.34375 Z M 689.652344 415.597656" style="stroke:none;fill-rule:nonzero;fill:#57bbff;fill-opacity:1;"/><path d="M 750.003906 449.339844 L 756.710938 449.339844 L 756.710938 456.085938 L 750.003906 456.085938 Z M 750.003906 449.339844" style="stroke:none;fill-rule:nonzero;fill:#57bbff;fill-opacity:1;"/><path d="M 729.886719 422.34375 L 736.59375 422.34375 L 736.59375 429.09375 L 729.886719 429.09375 Z M 729.886719 422.34375" style="stroke:none;fill-rule:nonzero;fill:#e24795;fill-opacity:1;"/><path d="M 750.003906 422.34375 L 756.710938 422.34375 L 756.710938 429.09375 L 750.003906 429.09375 Z M 750.003906 422.34375" style="stroke:none;fill-rule:nonzero;fill:#e24795;fill-opacity:1;"/><path d="M 729.886719 415.597656 L 736.59375 415.597656 L 736.59375 422.34375 L 729.886719 422.34375 Z M 729.886719 415.597656" style="stroke:none;fill-rule:nonzero;fill:#5211ba;fill-opacity:1;"/><path d="M 750.003906 415.597656 L 756.710938 415.597656 L 756.710938 422.34375 L 750.003906 422.34375 Z M 750.003906 415.597656" style="stroke:none;fill-rule:nonzero;fill:#5211ba;fill-opacity:1;"/><path d="M 716.476562 422.34375 L 723.179688 422.34375 L 723.179688 429.09375 L 716.476562 429.09375 Z M 716.476562 422.34375" style="stroke:none;fill-rule:nonzero;fill:#5211ba;fill-opacity:1;"/><path d="M 723.179688 429.09375 L 729.886719 429.09375 L 729.886719 435.839844 L 723.179688 435.839844 Z M 723.179688 429.09375" style="stroke:none;fill-rule:nonzero;fill:#5211ba;fill-opacity:1;"/><path d="M 729.886719 435.839844 L 756.710938 435.839844 L 756.710938 442.589844 L 729.886719 442.589844 Z M 729.886719 435.839844" style="stroke:none;fill-rule:nonzero;fill:#5211ba;fill-opacity:1;"/><g clip-path="url(#6264548c0d)" clip-rule="nonzero"><path d="M 689.652344 442.589844 L 682.945312 442.589844 L 682.945312 456.085938 L 676.242188 456.085938 L 676.242188 462.835938 L 750.003906 462.835938 L 750.003906 456.085938 L 689.652344 456.085938 Z M 689.652344 442.589844" style="stroke:none;fill-rule:nonzero;fill:#5211ba;fill-opacity:1;"/></g><path d="M 756.710938 429.09375 L 763.417969 429.09375 L 763.417969 435.839844 L 756.710938 435.839844 Z M 756.710938 429.09375" style="stroke:none;fill-rule:nonzero;fill:#5211ba;fill-opacity:1;"/><path d="M 763.417969 422.34375 L 770.121094 422.34375 L 770.121094 429.09375 L 763.417969 429.09375 Z M 763.417969 422.34375" style="stroke:none;fill-rule:nonzero;fill:#5211ba;fill-opacity:1;"/><path d="M 696.359375 435.839844 L 689.652344 435.839844 L 689.652344 456.085938 L 716.476562 456.085938 L 716.476562 449.339844 L 696.359375 449.339844 Z M 696.359375 435.839844" style="stroke:none;fill-rule:nonzero;fill:#9f8fff;fill-opacity:1;"/><g clip-path="url(#94de1f34f9)" clip-rule="nonzero"><path d="M 676.242188 442.589844 L 669.535156 442.589844 L 669.535156 435.839844 L 676.242188 435.839844 L 676.242188 429.09375 L 669.535156 429.09375 L 669.535156 422.34375 L 662.828125 422.34375 L 662.828125 449.339844 L 669.535156 449.339844 L 669.535156 456.085938 L 682.945312 456.085938 L 682.945312 449.339844 L 676.242188 449.339844 Z M 676.242188 442.589844" style="stroke:none;fill-rule:nonzero;fill:#9f8fff;fill-opacity:1;"/></g><path d="M 669.535156 415.597656 L 676.242188 415.597656 L 676.242188 422.34375 L 669.535156 422.34375 Z M 669.535156 415.597656" style="stroke:none;fill-rule:nonzero;fill:#9f8fff;fill-opacity:1;"/><path d="M 682.945312 422.34375 L 689.652344 422.34375 L 689.652344 429.09375 L 682.945312 429.09375 Z M 682.945312 422.34375" style="stroke:none;fill-rule:nonzero;fill:#9f8fff;fill-opacity:1;"/><path d="M 723.179688 422.34375 L 729.886719 422.34375 L 729.886719 429.09375 L 723.179688 429.09375 Z M 723.179688 422.34375" style="stroke:none;fill-rule:nonzero;fill:#9f8fff;fill-opacity:1;"/><path d="M 756.710938 422.34375 L 763.417969 422.34375 L 763.417969 429.09375 L 756.710938 429.09375 Z M 756.710938 422.34375" style="stroke:none;fill-rule:nonzero;fill:#9f8fff;fill-opacity:1;"/><path d="M 729.886719 429.09375 L 756.710938 429.09375 L 756.710938 435.839844 L 729.886719 435.839844 Z M 729.886719 429.09375" style="stroke:none;fill-rule:nonzero;fill:#9f8fff;fill-opacity:1;"/><path d="M 716.476562 415.597656 L 716.476562 408.847656 L 709.769531 408.847656 L 709.769531 422.34375 L 723.179688 422.34375 L 723.179688 415.597656 Z M 716.476562 415.597656" style="stroke:none;fill-rule:nonzero;fill:#9f8fff;fill-opacity:1;"/><g clip-path="url(#6964c6c09f)" clip-rule="nonzero"><path d="M 716.476562 388.605469 L 723.179688 388.605469 L 723.179688 408.847656 L 716.476562 408.847656 Z M 716.476562 388.605469" style="stroke:none;fill-rule:nonzero;fill:#9f8fff;fill-opacity:1;"/></g><path d="M 750.003906 395.351562 L 756.710938 395.351562 L 756.710938 402.101562 L 750.003906 402.101562 Z M 750.003906 395.351562" style="stroke:none;fill-rule:nonzero;fill:#9f8fff;fill-opacity:1;"/><g clip-path="url(#d058b7b6f3)" clip-rule="nonzero"><path d="M 756.710938 388.605469 L 763.417969 388.605469 L 763.417969 395.351562 L 756.710938 395.351562 Z M 756.710938 388.605469" style="stroke:none;fill-rule:nonzero;fill:#9f8fff;fill-opacity:1;"/></g><path d="M 743.300781 442.589844 L 750.003906 442.589844 L 750.003906 456.085938 L 743.300781 456.085938 Z M 743.300781 442.589844" style="stroke:none;fill-rule:nonzero;fill:#9f8fff;fill-opacity:1;"/><path d="M 750.003906 395.351562 L 756.710938 395.351562 L 756.710938 402.101562 L 750.003906 402.101562 Z M 750.003906 395.351562" style="stroke:none;fill-rule:nonzero;fill:#57bbff;fill-opacity:1;"/><g clip-path="url(#416fe7a179)" clip-rule="nonzero"><path d="M 770.121094 408.847656 L 776.828125 408.847656 L 776.828125 422.34375 L 770.121094 422.34375 Z M 770.121094 408.847656" style="stroke:none;fill-rule:nonzero;fill:#57bbff;fill-opacity:1;"/></g></g></svg>