<svg version="1.2" preserveAspectRatio="xMidYMid meet" viewBox="633.0168728908886 315.2519972756 176.55793025871768 179.819998446" zoomAndPan="magnify" xmlns:xlink="http://www.w3.org/1999/xlink" xmlns="http://www.w3.org/2000/svg" style="max-height: 500px" width="176.55793025871768" height="179.819998446"><defs><clipPath id="bd61acbfbe"><path d="M 638.367188 318.84375 L 801.867188 318.84375 L 801.867188 491.34375 L 638.367188 491.34375 Z M 638.367188 318.84375"/></clipPath></defs><g id="85bb4a2b89"><path d="M 666.496094 430.359375 L 688.355469 441.925781 C 688.574219 442.039062 688.683594 442.21875 688.6875 442.460938 L 689.25 472.296875 C 689.25 472.410156 689.222656 472.515625 689.167969 472.613281 C 689.082031 472.761719 688.957031 472.859375 688.792969 472.902344 C 688.628906 472.945312 688.472656 472.925781 688.324219 472.84375 L 666.917969 460.535156 C 666.703125 460.421875 666.589844 460.242188 666.582031 460 L 665.570312 430.964844 C 665.5625 430.84375 665.585938 430.730469 665.640625 430.625 C 665.722656 430.472656 665.84375 430.375 666.007812 430.324219 C 666.171875 430.277344 666.328125 430.292969 666.476562 430.371094 Z M 775.8125 392.710938 L 775.941406 360.804688 C 775.929688 360.667969 775.960938 360.539062 776.035156 360.425781 C 776.109375 360.308594 776.210938 360.226562 776.339844 360.175781 L 798.085938 351.875 C 798.15625 351.851562 798.230469 351.835938 798.304688 351.835938 C 798.476562 351.835938 798.625 351.894531 798.746094 352.015625 C 798.867188 352.136719 798.925781 352.285156 798.925781 352.457031 L 798.972656 383.828125 C 798.992188 384.125 798.863281 384.328125 798.585938 384.441406 L 776.664062 393.289062 C 776.589844 393.320312 776.511719 393.332031 776.433594 393.332031 C 776.261719 393.332031 776.117188 393.269531 775.996094 393.148438 C 775.875 393.03125 775.816406 392.882812 775.816406 392.710938 Z M 718.171875 358.074219 L 696.941406 348.632812 C 696.679688 348.523438 696.550781 348.328125 696.5625 348.042969 C 696.570312 347.757812 696.710938 347.570312 696.980469 347.480469 L 720.933594 339.117188 C 721.085938 339.058594 721.234375 339.058594 721.386719 339.117188 L 743.007812 347.816406 C 743.273438 347.921875 743.40625 348.113281 743.402344 348.398438 C 743.398438 348.683594 743.261719 348.875 742.996094 348.972656 L 718.660156 358.074219 C 718.496094 358.144531 718.335938 358.144531 718.171875 358.074219 Z M 641.890625 350.449219 L 660.917969 359.085938 C 661.152344 359.191406 661.273438 359.375 661.28125 359.632812 L 662.386719 391.746094 C 662.386719 391.847656 662.367188 391.941406 662.324219 392.035156 C 662.25 392.1875 662.132812 392.292969 661.972656 392.351562 C 661.808594 392.40625 661.652344 392.398438 661.496094 392.324219 L 642.75 383.324219 C 642.507812 383.21875 642.378906 383.039062 642.371094 382.777344 L 641.015625 351.078125 C 641.003906 350.964844 641.019531 350.859375 641.066406 350.757812 C 641.136719 350.601562 641.253906 350.492188 641.414062 350.433594 C 641.574219 350.371094 641.734375 350.378906 641.890625 350.449219 Z M 641.890625 350.449219" style="stroke:none;fill-rule:evenodd;fill:#5211ba;fill-opacity:1;"/><path d="M 688.980469 348.300781 L 662.492188 357.542969 C 662.324219 357.617188 662.15625 357.617188 661.988281 357.542969 L 643.941406 349.335938 C 643.777344 349.261719 643.667969 349.140625 643.613281 348.964844 C 643.558594 348.804688 643.570312 348.644531 643.644531 348.492188 C 643.722656 348.339844 643.839844 348.234375 644.003906 348.183594 L 670.707031 339.164062 C 670.859375 339.113281 671.007812 339.121094 671.15625 339.1875 L 689.019531 347.132812 C 689.1875 347.203125 689.300781 347.328125 689.363281 347.5 C 689.417969 347.664062 689.410156 347.820312 689.335938 347.976562 C 689.261719 348.128906 689.140625 348.234375 688.980469 348.289062 Z M 775.539062 461.855469 L 775.660156 431.003906 C 775.65625 430.726562 775.785156 430.535156 776.039062 430.425781 L 798.175781 421.054688 C 798.253906 421.015625 798.339844 421 798.425781 421 C 798.597656 421 798.742188 421.058594 798.863281 421.179688 C 798.984375 421.300781 799.046875 421.449219 799.046875 421.617188 L 799.09375 452.269531 C 799.113281 452.5625 798.988281 452.765625 798.71875 452.878906 L 776.410156 462.425781 C 776.328125 462.460938 776.246094 462.476562 776.160156 462.476562 C 775.988281 462.472656 775.84375 462.414062 775.722656 462.292969 C 775.601562 462.171875 775.542969 462.023438 775.542969 461.855469 Z M 722.246094 358.730469 L 746.804688 349.539062 C 746.960938 349.472656 747.121094 349.472656 747.277344 349.539062 L 770.964844 359.066406 C 771.238281 359.160156 771.378906 359.351562 771.386719 359.640625 C 771.390625 359.933594 771.257812 360.128906 770.988281 360.234375 L 745.402344 369.996094 C 745.246094 370.058594 745.089844 370.058594 744.929688 369.996094 L 722.207031 359.890625 C 721.953125 359.777344 721.832031 359.578125 721.84375 359.304688 C 721.851562 359.027344 721.984375 358.839844 722.246094 358.742188 Z M 714.054688 383.609375 L 714.207031 416.640625 C 714.207031 416.734375 714.1875 416.824219 714.148438 416.910156 C 714.074219 417.0625 713.957031 417.167969 713.792969 417.226562 C 713.632812 417.28125 713.476562 417.273438 713.324219 417.199219 L 690.203125 406.105469 C 689.960938 406 689.835938 405.8125 689.832031 405.550781 L 689.207031 372.953125 C 689.199219 372.84375 689.214844 372.742188 689.261719 372.644531 C 689.332031 372.488281 689.445312 372.378906 689.605469 372.320312 C 689.765625 372.257812 689.925781 372.261719 690.082031 372.332031 L 713.691406 383.039062 C 713.9375 383.148438 714.058594 383.339844 714.054688 383.609375 Z M 714.054688 383.609375" style="stroke:none;fill-rule:evenodd;fill:#5211ba;fill-opacity:1;"/><path d="M 644.847656 418.902344 L 663.339844 428.691406 C 663.554688 428.800781 663.664062 428.976562 663.671875 429.21875 L 664.679688 458.140625 C 664.683594 458.257812 664.652344 458.367188 664.597656 458.46875 C 664.511719 458.617188 664.386719 458.710938 664.222656 458.757812 C 664.054688 458.800781 663.898438 458.78125 663.75 458.695312 L 645.496094 448.199219 C 645.28125 448.089844 645.167969 447.914062 645.160156 447.671875 L 643.941406 419.503906 C 643.921875 419.261719 644.015625 419.070312 644.21875 418.9375 C 644.421875 418.800781 644.632812 418.789062 644.847656 418.902344 Z M 741.929688 329.835938 L 721.464844 336.96875 C 721.316406 337.027344 721.164062 337.027344 721.015625 336.96875 L 702.613281 329.5625 C 702.34375 329.457031 702.214844 329.257812 702.222656 328.96875 C 702.230469 328.679688 702.371094 328.492188 702.648438 328.398438 L 723.125 321.492188 C 723.265625 321.441406 723.40625 321.441406 723.546875 321.492188 L 741.949219 328.660156 C 742.222656 328.757812 742.359375 328.953125 742.359375 329.242188 C 742.359375 329.535156 742.222656 329.726562 741.949219 329.828125 Z M 746.328125 440.070312 L 746.207031 408.046875 C 746.1875 407.75 746.320312 407.546875 746.597656 407.433594 L 773.085938 396.746094 C 773.164062 396.714844 773.242188 396.699219 773.320312 396.699219 C 773.492188 396.699219 773.636719 396.761719 773.757812 396.882812 C 773.878906 397.003906 773.9375 397.152344 773.9375 397.320312 L 773.8125 428.925781 C 773.816406 429.207031 773.6875 429.398438 773.433594 429.507812 L 747.210938 440.621094 C 747.128906 440.65625 747.046875 440.675781 746.957031 440.675781 C 746.789062 440.675781 746.640625 440.613281 746.519531 440.492188 C 746.402344 440.371094 746.339844 440.226562 746.339844 440.054688 Z M 690.511719 440.597656 L 689.902344 409.007812 C 689.898438 408.910156 689.917969 408.820312 689.960938 408.730469 C 690.035156 408.578125 690.152344 408.472656 690.3125 408.414062 C 690.472656 408.359375 690.632812 408.367188 690.785156 408.4375 L 713.855469 419.515625 C 714.105469 419.632812 714.222656 419.828125 714.210938 420.101562 L 714.363281 452.53125 C 714.371094 452.648438 714.347656 452.757812 714.292969 452.859375 C 714.210938 453.011719 714.089844 453.109375 713.925781 453.160156 C 713.761719 453.207031 713.605469 453.191406 713.457031 453.113281 L 690.828125 441.136719 C 690.613281 441.019531 690.5 440.84375 690.496094 440.597656 Z M 664.066406 360.515625 L 686.957031 370.90625 C 687.195312 371.015625 687.316406 371.199219 687.320312 371.460938 L 687.945312 404.03125 C 687.949219 404.128906 687.929688 404.222656 687.886719 404.308594 C 687.8125 404.460938 687.695312 404.566406 687.535156 404.625 C 687.371094 404.683594 687.214844 404.675781 687.058594 404.601562 L 664.671875 393.851562 C 664.429688 393.746094 664.308594 393.566406 664.300781 393.300781 L 663.191406 361.140625 C 663.183594 361.03125 663.199219 360.925781 663.246094 360.824219 C 663.292969 360.726562 663.359375 360.644531 663.449219 360.578125 C 663.539062 360.515625 663.640625 360.476562 663.75 360.464844 C 663.859375 360.453125 663.964844 360.472656 664.066406 360.515625 Z M 664.066406 360.515625" style="stroke:none;fill-rule:evenodd;fill:#5211ba;fill-opacity:1;"/><path d="M 746.453125 474.3125 L 746.339844 443.441406 C 746.332031 443.160156 746.457031 442.960938 746.71875 442.851562 L 772.925781 431.757812 C 773.007812 431.722656 773.089844 431.703125 773.179688 431.707031 C 773.347656 431.707031 773.496094 431.765625 773.613281 431.886719 C 773.734375 432.007812 773.792969 432.15625 773.792969 432.328125 L 773.671875 463.164062 C 773.6875 463.453125 773.5625 463.65625 773.292969 463.769531 L 747.324219 474.890625 C 747.242188 474.925781 747.160156 474.941406 747.070312 474.941406 C 746.898438 474.941406 746.753906 474.878906 746.632812 474.757812 C 746.511719 474.636719 746.453125 474.492188 746.453125 474.320312 Z M 746.863281 347.367188 L 725.386719 338.71875 C 725.121094 338.613281 724.992188 338.417969 724.996094 338.128906 C 725.003906 337.84375 725.140625 337.65625 725.410156 337.558594 L 745.96875 330.386719 C 746.109375 330.335938 746.253906 330.335938 746.394531 330.386719 L 767.558594 338.625 C 767.824219 338.726562 767.953125 338.917969 767.953125 339.203125 C 767.953125 339.484375 767.824219 339.679688 767.558594 339.78125 L 747.347656 347.34375 C 747.1875 347.414062 747.027344 347.414062 746.871094 347.34375 Z M 741.300781 371.570312 L 715.25 381.503906 C 715.089844 381.566406 714.929688 381.558594 714.773438 381.488281 L 692.03125 371.152344 C 691.777344 371.039062 691.652344 370.84375 691.664062 370.566406 C 691.671875 370.289062 691.808594 370.101562 692.070312 370.007812 L 718.089844 360.269531 C 718.25 360.203125 718.414062 360.203125 718.574219 360.269531 L 741.296875 370.375 C 741.5625 370.476562 741.695312 370.671875 741.695312 370.957031 C 741.695312 371.246094 741.5625 371.4375 741.296875 371.539062 Z M 665.46875 427.355469 L 664.417969 396.792969 C 664.414062 396.691406 664.433594 396.597656 664.476562 396.507812 C 664.550781 396.351562 664.667969 396.246094 664.832031 396.191406 C 664.992188 396.132812 665.152344 396.140625 665.304688 396.214844 L 687.644531 406.941406 C 687.886719 407.046875 688.011719 407.234375 688.011719 407.5 L 688.617188 438.882812 C 688.625 439.003906 688.601562 439.113281 688.546875 439.21875 C 688.464844 439.371094 688.34375 439.46875 688.179688 439.519531 C 688.015625 439.566406 687.859375 439.550781 687.707031 439.472656 L 665.800781 427.875 C 665.585938 427.761719 665.472656 427.585938 665.46875 427.34375 Z M 716.230469 452.808594 L 716.078125 420.199219 C 716.070312 419.902344 716.203125 419.703125 716.480469 419.597656 L 743.515625 408.6875 C 743.589844 408.660156 743.667969 408.644531 743.746094 408.644531 C 743.917969 408.644531 744.0625 408.703125 744.183594 408.824219 C 744.304688 408.945312 744.367188 409.09375 744.367188 409.261719 L 744.46875 441.351562 C 744.472656 441.632812 744.347656 441.828125 744.089844 441.941406 L 717.105469 453.386719 C 717.023438 453.421875 716.941406 453.4375 716.851562 453.441406 C 716.679688 453.441406 716.53125 453.378906 716.410156 453.257812 C 716.285156 453.132812 716.226562 452.984375 716.230469 452.808594 Z M 716.230469 452.808594" style="stroke:none;fill-rule:evenodd;fill:#5211ba;fill-opacity:1;"/><path d="M 717 338.523438 L 693.253906 346.808594 C 693.097656 346.863281 692.945312 346.855469 692.796875 346.789062 C 686.910156 344.171875 680.914062 341.339844 674.984375 338.867188 C 674.726562 338.753906 674.605469 338.554688 674.617188 338.273438 C 674.632812 337.988281 674.773438 337.804688 675.039062 337.714844 L 698.117188 329.933594 C 698.265625 329.875 698.414062 329.875 698.5625 329.933594 L 717.027344 337.359375 C 717.292969 337.464844 717.421875 337.660156 717.414062 337.945312 C 717.40625 338.230469 717.269531 338.421875 717 338.519531 Z M 744.484375 444.726562 L 744.597656 475.589844 C 744.617188 475.882812 744.492188 476.085938 744.222656 476.199219 L 717.242188 487.746094 C 717.167969 487.777344 717.085938 487.792969 717.003906 487.792969 C 716.832031 487.796875 716.6875 487.734375 716.5625 487.613281 C 716.441406 487.492188 716.382812 487.347656 716.382812 487.175781 L 716.238281 456.179688 C 716.230469 455.902344 716.355469 455.707031 716.617188 455.597656 L 743.59375 444.160156 C 743.675781 444.128906 743.757812 444.109375 743.847656 444.109375 C 744.019531 444.109375 744.164062 444.167969 744.285156 444.289062 C 744.40625 444.410156 744.46875 444.558594 744.46875 444.730469 Z M 775.671875 427.625 L 775.796875 396.089844 C 775.785156 395.796875 775.914062 395.59375 776.1875 395.484375 L 798.121094 386.628906 C 798.195312 386.597656 798.273438 386.582031 798.355469 386.582031 C 798.523438 386.582031 798.671875 386.644531 798.792969 386.765625 C 798.914062 386.886719 798.972656 387.03125 798.972656 387.203125 L 799.023438 418.242188 C 799.03125 418.523438 798.902344 418.71875 798.644531 418.828125 L 776.539062 428.191406 C 776.457031 428.226562 776.375 428.242188 776.285156 428.246094 C 776.117188 428.242188 775.96875 428.183594 775.847656 428.0625 C 775.726562 427.9375 775.667969 427.792969 775.667969 427.621094 Z M 716.308594 383.09375 L 743.378906 372.753906 C 743.449219 372.730469 743.523438 372.714844 743.597656 372.714844 C 743.769531 372.714844 743.917969 372.777344 744.039062 372.898438 C 744.160156 373.019531 744.21875 373.164062 744.21875 373.335938 L 744.339844 405.863281 C 744.367188 406.160156 744.242188 406.367188 743.964844 406.488281 L 716.914062 417.398438 C 716.820312 417.4375 716.722656 417.449219 716.621094 417.4375 C 716.519531 417.425781 716.425781 417.394531 716.339844 417.335938 C 716.253906 417.277344 716.1875 417.207031 716.140625 417.117188 C 716.09375 417.027344 716.066406 416.929688 716.066406 416.828125 L 715.914062 383.726562 C 715.902344 383.589844 715.933594 383.460938 716.007812 383.34375 C 716.078125 383.226562 716.179688 383.144531 716.308594 383.09375 Z M 693.164062 349 L 714.539062 358.503906 C 714.789062 358.617188 714.914062 358.8125 714.902344 359.089844 C 714.894531 359.367188 714.761719 359.554688 714.5 359.652344 L 688.546875 369.355469 C 688.378906 369.429688 688.210938 369.429688 688.042969 369.355469 L 666.105469 359.390625 C 665.945312 359.316406 665.832031 359.195312 665.777344 359.027344 C 665.71875 358.863281 665.730469 358.707031 665.804688 358.554688 C 665.878906 358.398438 665.996094 358.292969 666.15625 358.238281 L 692.726562 348.96875 C 692.875 348.921875 693.023438 348.933594 693.164062 349 Z M 693.164062 349" style="stroke:none;fill-rule:evenodd;fill:#5211ba;fill-opacity:1;"/><path d="M 751.136719 347.914062 L 771.429688 340.320312 C 771.582031 340.257812 771.734375 340.257812 771.886719 340.320312 L 795.722656 349.597656 C 796.003906 349.6875 796.148438 349.878906 796.160156 350.171875 C 796.167969 350.464844 796.035156 350.664062 795.757812 350.773438 L 775.25 358.589844 C 775.097656 358.648438 774.945312 358.648438 774.796875 358.589844 L 751.121094 349.066406 C 750.949219 349 750.832031 348.878906 750.769531 348.710938 C 750.710938 348.546875 750.71875 348.390625 750.789062 348.234375 C 750.859375 348.082031 750.976562 347.972656 751.136719 347.914062 Z M 662.503906 395.242188 L 663.546875 425.613281 C 663.558594 425.734375 663.535156 425.847656 663.480469 425.953125 C 663.398438 426.105469 663.277344 426.203125 663.113281 426.253906 C 662.949219 426.300781 662.792969 426.285156 662.640625 426.207031 L 644.117188 416.410156 C 643.90625 416.300781 643.796875 416.125 643.789062 415.886719 L 642.527344 386.285156 C 642.523438 386.183594 642.542969 386.085938 642.585938 385.992188 C 642.660156 385.839844 642.777344 385.734375 642.9375 385.675781 C 643.101562 385.621094 643.257812 385.628906 643.410156 385.703125 L 662.136719 394.691406 C 662.378906 394.792969 662.503906 394.976562 662.507812 395.242188 Z M 691.480469 443.582031 L 714.058594 455.527344 C 714.277344 455.644531 714.390625 455.828125 714.390625 456.074219 L 714.53125 486.835938 C 714.53125 486.949219 714.503906 487.050781 714.449219 487.148438 C 714.363281 487.296875 714.238281 487.394531 714.074219 487.4375 C 713.910156 487.480469 713.753906 487.460938 713.605469 487.375 L 691.480469 474.652344 C 691.265625 474.539062 691.15625 474.359375 691.148438 474.117188 L 690.574219 444.183594 C 690.566406 444.0625 690.589844 443.953125 690.644531 443.847656 C 690.726562 443.695312 690.847656 443.597656 691.011719 443.546875 C 691.175781 443.5 691.332031 443.515625 691.480469 443.59375 Z M 746.488281 371.578125 L 773.238281 361.355469 C 773.3125 361.328125 773.386719 361.3125 773.464844 361.3125 C 773.632812 361.316406 773.777344 361.375 773.898438 361.496094 C 774.019531 361.621094 774.078125 361.765625 774.078125 361.9375 L 773.953125 393.921875 C 773.964844 394.21875 773.835938 394.417969 773.5625 394.53125 L 747.046875 405.238281 C 746.972656 405.269531 746.894531 405.285156 746.816406 405.285156 C 746.644531 405.285156 746.5 405.222656 746.378906 405.101562 C 746.257812 404.980469 746.199219 404.835938 746.199219 404.664062 L 746.078125 372.210938 C 746.066406 372.070312 746.101562 371.945312 746.175781 371.824219 C 746.25 371.707031 746.355469 371.625 746.488281 371.578125 Z M 746.488281 371.578125" style="stroke:none;fill-rule:evenodd;fill:#5211ba;fill-opacity:1;"/><g clip-path="url(#bd61acbfbe)" clip-rule="nonzero"><path d="M 639.5625 347.066406 L 697.839844 327.398438 L 697.933594 327.367188 L 722.875 318.964844 C 723.238281 318.839844 723.597656 318.851562 723.953125 319 L 746.738281 327.867188 L 746.785156 327.886719 L 800.316406 348.722656 C 800.660156 348.828125 800.933594 349.035156 801.136719 349.332031 C 801.339844 349.632812 801.425781 349.960938 801.398438 350.324219 L 801.453125 384.820312 C 801.457031 384.878906 801.457031 384.933594 801.453125 384.992188 L 801.507812 419.246094 L 801.507812 419.308594 L 801.5625 453.332031 C 801.5625 453.644531 801.476562 453.925781 801.308594 454.1875 C 801.136719 454.445312 800.90625 454.636719 800.621094 454.757812 L 716.082031 490.953125 C 715.570312 491.171875 715.082031 491.128906 714.617188 490.820312 L 689.515625 476.386719 L 689.421875 476.328125 L 664.976562 462.273438 C 664.9375 462.253906 664.898438 462.230469 664.859375 462.207031 L 643.480469 449.902344 C 642.988281 449.621094 642.730469 449.191406 642.707031 448.621094 L 641.34375 416.949219 C 641.339844 416.90625 641.339844 416.859375 641.34375 416.816406 L 638.433594 348.714844 C 638.40625 348.4375 638.453125 348.175781 638.570312 347.921875 C 638.769531 347.476562 639.109375 347.191406 639.578125 347.066406 Z M 644.40625 415.863281 L 662.929688 425.664062 L 661.886719 395.261719 L 643.140625 386.261719 L 644.398438 415.863281 Z M 666.089844 427.335938 L 688 438.933594 L 687.398438 407.511719 L 665.046875 396.773438 L 666.09375 427.335938 Z M 691.128906 440.585938 L 713.757812 452.5625 L 713.605469 420.101562 L 690.511719 409.007812 L 691.117188 440.585938 Z M 716.847656 452.808594 L 743.847656 441.367188 L 743.734375 409.261719 L 716.703125 420.160156 L 716.851562 452.808594 Z M 746.941406 440.058594 L 773.1875 428.941406 L 773.3125 397.3125 L 746.828125 408 L 746.945312 440.058594 Z M 776.289062 427.625 L 798.40625 418.257812 L 798.355469 387.207031 L 776.421875 396.0625 L 776.292969 427.625 Z M 798.425781 421.617188 L 776.28125 430.996094 L 776.160156 461.855469 L 798.464844 452.308594 Z M 773.191406 432.304688 L 746.96875 443.398438 L 747.074219 474.3125 L 773.058594 463.191406 L 773.179688 432.316406 Z M 743.867188 444.726562 L 716.867188 456.160156 L 717.011719 487.171875 L 743.992188 475.628906 L 743.875 444.726562 Z M 713.769531 456.074219 L 691.195312 444.132812 L 691.773438 474.101562 L 713.914062 486.832031 L 713.773438 456.074219 Z M 688.066406 442.476562 L 666.210938 430.910156 L 667.21875 459.976562 L 688.652344 472.300781 Z M 663.054688 429.238281 L 644.558594 419.453125 L 645.765625 447.644531 L 664.035156 458.15625 L 663.042969 429.238281 Z M 642.992188 382.753906 L 661.765625 391.769531 L 660.664062 359.652344 L 641.632812 351.015625 L 642.992188 382.757812 Z M 664.925781 393.28125 L 687.335938 404.042969 L 686.710938 371.472656 L 663.808594 361.082031 L 664.917969 393.28125 Z M 690.464844 405.542969 L 713.601562 416.652344 L 713.445312 383.621094 L 689.835938 372.90625 L 690.464844 405.554688 Z M 716.6875 416.824219 L 743.714844 405.914062 L 743.59375 373.339844 L 716.523438 383.679688 Z M 746.8125 404.664062 L 773.332031 393.964844 L 773.460938 361.941406 L 746.691406 372.160156 Z M 776.433594 392.710938 L 798.371094 383.863281 L 798.320312 352.457031 L 776.570312 360.757812 L 776.445312 392.710938 Z M 741.082031 370.976562 L 718.324219 360.851562 L 692.277344 370.601562 L 715.023438 380.9375 L 741.074219 370.992188 Z M 714.285156 359.058594 L 692.910156 349.554688 L 666.34375 358.832031 L 688.28125 368.792969 Z M 688.777344 347.714844 L 670.902344 339.761719 L 644.199219 348.769531 L 662.257812 356.96875 Z M 675.238281 338.296875 L 693.046875 346.226562 L 716.796875 337.9375 L 698.328125 330.511719 L 675.230469 338.300781 Z M 697.171875 348.0625 L 718.414062 357.507812 L 742.78125 348.390625 L 721.167969 339.695312 L 697.183594 348.0625 Z M 722.453125 359.304688 L 745.183594 369.421875 L 770.765625 359.65625 L 747.046875 350.117188 L 722.460938 359.316406 Z M 702.851562 328.988281 L 721.246094 336.390625 L 741.726562 329.246094 L 723.320312 322.085938 L 702.839844 328.996094 Z M 725.613281 338.15625 L 747.09375 346.796875 L 767.332031 339.230469 L 746.171875 330.972656 Z M 751.351562 348.496094 L 775.027344 358.019531 L 795.539062 350.1875 L 771.664062 340.894531 Z M 751.351562 348.496094" style="stroke:none;fill-rule:evenodd;fill:#ffffff;fill-opacity:1;"/></g></g></svg>