<svg version="1.2" preserveAspectRatio="xMidYMid meet" viewBox="603.7390326209224 351.41849696305 153.88076490438695 140.939998782" zoomAndPan="magnify" xmlns:xlink="http://www.w3.org/1999/xlink" xmlns="http://www.w3.org/2000/svg" style="max-height: 500px" width="153.88076490438695" height="140.939998782"><defs><clipPath id="3817bd0598"><path d="M 631 486 L 635 486 L 635 496.65625 L 631 496.65625 Z M 631 486"/></clipPath></defs><g id="6bfa8490d7"><path d="M 687.679688 465.03125 C 690.097656 464.605469 691.714844 462.296875 691.289062 459.871094 C 690.863281 457.453125 688.554688 455.835938 686.132812 456.261719 C 683.710938 456.6875 682.09375 458.996094 682.519531 461.417969 C 682.945312 463.839844 685.257812 465.457031 687.679688 465.03125 Z M 687.679688 465.03125" style="stroke:none;fill-rule:nonzero;fill:#ffffff;fill-opacity:1;"/><path d="M 720.320312 459.273438 C 722.742188 458.847656 724.359375 456.539062 723.933594 454.117188 C 723.507812 451.695312 721.199219 450.078125 718.773438 450.503906 C 716.351562 450.929688 714.738281 453.238281 715.164062 455.664062 C 715.59375 458.082031 717.902344 459.699219 720.320312 459.273438 Z M 720.320312 459.273438" style="stroke:none;fill-rule:nonzero;fill:#ffffff;fill-opacity:1;"/><path d="M 679.097656 475.289062 L 731.894531 465.980469 C 733.003906 465.785156 733.746094 464.722656 733.550781 463.613281 L 729.722656 441.902344 C 729.527344 440.789062 728.46875 440.046875 727.355469 440.242188 L 674.558594 449.550781 C 673.449219 449.75 672.707031 450.808594 672.902344 451.921875 L 676.730469 473.628906 C 676.929688 474.742188 677.988281 475.488281 679.097656 475.289062 Z M 718.285156 447.722656 C 722.242188 447.023438 726.015625 449.667969 726.714844 453.625 C 727.414062 457.582031 724.769531 461.359375 720.8125 462.054688 C 716.855469 462.753906 713.078125 460.113281 712.382812 456.152344 C 711.683594 452.195312 714.324219 448.421875 718.285156 447.722656 Z M 699.847656 454.5625 L 706.5625 456.796875 C 707.125 456.984375 707.230469 457.734375 706.746094 458.070312 L 701.109375 461.960938 C 700.679688 462.261719 700.085938 462.011719 699.992188 461.496094 L 698.914062 455.367188 C 698.820312 454.832031 699.332031 454.390625 699.847656 454.5625 Z M 685.640625 453.480469 C 689.601562 452.78125 693.375 455.421875 694.074219 459.382812 C 694.769531 463.339844 692.128906 467.113281 688.167969 467.8125 C 684.210938 468.511719 680.4375 465.867188 679.738281 461.910156 C 679.039062 457.953125 681.683594 454.175781 685.640625 453.480469 Z M 685.640625 453.480469" style="stroke:none;fill-rule:nonzero;fill:#ffffff;fill-opacity:1;"/><g clip-path="url(#3817bd0598)" clip-rule="nonzero"><path d="M 633.308594 487.839844 C 633.253906 487.277344 632.75 486.871094 632.191406 486.925781 C 631.628906 486.980469 631.222656 487.480469 631.277344 488.042969 L 632.042969 495.605469 C 632.09375 496.132812 632.539062 496.527344 633.058594 496.527344 C 633.09375 496.527344 633.128906 496.523438 633.164062 496.519531 C 633.722656 496.464844 634.132812 495.960938 634.078125 495.402344 Z M 633.308594 487.839844" style="stroke:none;fill-rule:nonzero;fill:#ffffff;fill-opacity:1;"/></g><path d="M 617.113281 482.523438 L 611.066406 487.128906 C 610.617188 487.46875 610.535156 488.113281 610.875 488.558594 C 611.078125 488.820312 611.378906 488.960938 611.691406 488.960938 C 611.90625 488.960938 612.121094 488.894531 612.308594 488.75 L 618.355469 484.144531 C 618.808594 483.804688 618.890625 483.160156 618.550781 482.714844 C 618.207031 482.269531 617.5625 482.179688 617.113281 482.523438 Z M 617.113281 482.523438" style="stroke:none;fill-rule:nonzero;fill:#ffffff;fill-opacity:1;"/><path d="M 717.941406 380.871094 C 718.082031 380.9375 718.230469 380.964844 718.378906 380.964844 C 718.761719 380.964844 719.128906 380.75 719.304688 380.378906 L 722.539062 373.5 C 722.78125 372.992188 722.5625 372.382812 722.050781 372.140625 C 721.539062 371.902344 720.933594 372.121094 720.691406 372.632812 L 717.453125 379.507812 C 717.210938 380.019531 717.433594 380.628906 717.941406 380.871094 Z M 717.941406 380.871094" style="stroke:none;fill-rule:nonzero;fill:#ffffff;fill-opacity:1;"/><path d="M 728.765625 400.347656 C 728.839844 400.347656 728.914062 400.339844 728.984375 400.324219 L 736.414062 398.699219 C 736.964844 398.582031 737.3125 398.035156 737.191406 397.484375 C 737.070312 396.929688 736.527344 396.582031 735.972656 396.703125 L 728.546875 398.328125 C 727.996094 398.445312 727.648438 398.992188 727.769531 399.542969 C 727.875 400.019531 728.296875 400.347656 728.765625 400.347656 Z M 728.765625 400.347656" style="stroke:none;fill-rule:nonzero;fill:#ffffff;fill-opacity:1;"/><path d="M 631.785156 453.527344 C 631.839844 452.964844 631.433594 452.464844 630.867188 452.40625 C 628.417969 452.164062 626.148438 451.808594 625.277344 450.152344 L 622.886719 445.605469 C 622.097656 444.109375 622.875 442.21875 623.738281 440.570312 C 624.179688 439.730469 624.191406 438.71875 623.769531 437.867188 L 621.148438 432.578125 C 615.292969 421.445312 614.125 408.695312 617.859375 396.683594 C 621.59375 384.671875 629.78125 374.828125 640.917969 368.976562 C 651.808594 363.25 664.460938 361.875 676.539062 365.105469 C 688.042969 368.183594 697.332031 375.074219 702.03125 384.015625 L 707.386719 393.875 C 707.84375 394.71875 708.6875 395.292969 709.644531 395.410156 C 711.484375 395.636719 713.472656 396.0625 714.261719 397.5625 L 716.652344 402.105469 C 717.523438 403.761719 716.53125 405.835938 715.339844 407.988281 C 715.070312 408.484375 715.25 409.105469 715.746094 409.375 C 716.238281 409.648438 716.859375 409.46875 717.132812 408.972656 C 718.242188 406.960938 719.914062 403.917969 718.460938 401.152344 L 716.074219 396.605469 L 709.839844 384.753906 C 703.171875 372.066406 691.957031 362.734375 678.269531 358.484375 C 664.582031 354.230469 650.058594 355.558594 637.371094 362.230469 C 611.183594 376.007812 601.078125 408.515625 614.851562 434.707031 L 621.082031 446.558594 L 623.472656 451.101562 C 624.925781 453.871094 628.382812 454.210938 630.667969 454.4375 C 630.703125 454.441406 630.734375 454.445312 630.769531 454.445312 C 631.289062 454.445312 631.734375 454.050781 631.785156 453.527344 Z M 621.933594 439.625 C 621.554688 440.34375 621.199219 441.105469 620.933594 441.886719 L 616.65625 433.753906 C 610.242188 421.546875 608.964844 407.578125 613.054688 394.410156 C 617.144531 381.246094 626.121094 370.460938 638.324219 364.042969 C 650.53125 357.628906 664.5 356.347656 677.667969 360.4375 C 690.832031 364.53125 701.617188 373.503906 708.035156 385.710938 L 712.3125 393.84375 C 711.519531 393.617188 710.695312 393.480469 709.894531 393.382812 C 709.59375 393.347656 709.332031 393.167969 709.183594 392.902344 L 703.839844 383.058594 C 698.878906 373.621094 689.121094 366.363281 677.070312 363.136719 C 664.496094 359.769531 651.316406 361.203125 639.96875 367.171875 C 628.347656 373.277344 619.808594 383.542969 615.910156 396.078125 C 612.015625 408.613281 613.234375 421.914062 619.332031 433.507812 L 621.941406 438.773438 C 622.074219 439.042969 622.070312 439.363281 621.933594 439.625 Z M 621.933594 439.625" style="stroke:none;fill-rule:nonzero;fill:#ffffff;fill-opacity:1;"/><path d="M 750.792969 470.914062 L 740.230469 411.019531 C 739.949219 409.40625 738.402344 408.324219 736.789062 408.609375 L 732.050781 409.441406 C 731.496094 409.535156 731.121094 410.066406 731.222656 410.621094 C 731.316406 411.175781 731.847656 411.550781 732.402344 411.453125 L 737.140625 410.621094 C 737.644531 410.53125 738.128906 410.871094 738.21875 411.371094 L 740.3125 423.242188 L 646.019531 439.867188 C 645.464844 439.964844 645.09375 440.496094 645.191406 441.050781 C 645.277344 441.546875 645.710938 441.894531 646.195312 441.894531 C 646.253906 441.894531 646.3125 441.886719 646.371094 441.878906 L 654.339844 440.472656 L 659.835938 471.65625 C 659.921875 472.152344 660.355469 472.5 660.839844 472.5 C 660.898438 472.5 660.960938 472.496094 661.019531 472.484375 C 661.574219 472.386719 661.945312 471.859375 661.847656 471.304688 L 656.351562 440.121094 L 740.664062 425.253906 L 748.777344 471.269531 C 748.867188 471.773438 748.53125 472.253906 748.023438 472.347656 L 664.625 487.050781 L 662.851562 476.984375 C 662.753906 476.429688 662.222656 476.058594 661.667969 476.15625 C 661.113281 476.253906 660.742188 476.78125 660.839844 477.335938 L 662.613281 487.40625 L 651.886719 489.296875 C 651.382812 489.386719 650.898438 489.050781 650.808594 488.542969 L 640.234375 428.5625 C 640.191406 428.316406 640.246094 428.070312 640.386719 427.867188 C 640.53125 427.660156 640.746094 427.527344 640.988281 427.484375 L 726.125 412.550781 C 726.679688 412.453125 727.054688 411.921875 726.953125 411.367188 C 726.859375 410.8125 726.324219 410.4375 725.773438 410.539062 L 714.25 412.558594 L 703.882812 392.84375 C 702.832031 390.847656 700.363281 390.078125 698.363281 391.128906 L 692.453125 394.238281 C 690.457031 395.289062 689.691406 397.761719 690.738281 399.761719 L 698.886719 415.257812 L 646.929688 424.371094 L 646.460938 421.710938 C 646.417969 421.464844 646.472656 421.214844 646.613281 421.011719 C 646.757812 420.808594 646.972656 420.671875 647.21875 420.625 L 658.714844 418.601562 C 658.960938 418.554688 659.207031 418.613281 659.414062 418.753906 C 659.617188 418.898438 659.753906 419.113281 659.796875 419.359375 C 659.898438 419.914062 660.421875 420.289062 660.980469 420.1875 C 661.535156 420.089844 661.90625 419.5625 661.808594 419.007812 C 661.671875 418.222656 661.238281 417.539062 660.582031 417.082031 C 659.933594 416.628906 659.140625 416.453125 658.359375 416.589844 L 646.863281 418.613281 C 646.082031 418.753906 645.398438 419.1875 644.9375 419.839844 C 644.484375 420.492188 644.308594 421.28125 644.445312 422.066406 L 644.914062 424.726562 L 640.628906 425.476562 C 639.847656 425.617188 639.167969 426.050781 638.710938 426.703125 C 638.46875 427.050781 638.308594 427.441406 638.226562 427.847656 L 638.03125 427.476562 C 636.980469 425.476562 634.511719 424.710938 632.511719 425.757812 L 626.605469 428.863281 C 624.609375 429.914062 623.84375 432.382812 624.890625 434.382812 L 635.660156 454.871094 C 636.714844 456.867188 639.183594 457.636719 641.183594 456.589844 L 642.9375 455.664062 L 646.289062 474.6875 L 643.53125 475.175781 C 643.023438 475.261719 642.539062 474.921875 642.449219 474.414062 L 641.589844 469.554688 C 641.546875 469.308594 641.601562 469.0625 641.746094 468.855469 C 641.890625 468.652344 642.105469 468.515625 642.351562 468.472656 C 642.90625 468.371094 643.273438 467.84375 643.179688 467.289062 C 643.082031 466.734375 642.550781 466.363281 641.996094 466.460938 C 641.214844 466.597656 640.53125 467.03125 640.074219 467.6875 C 639.617188 468.335938 639.441406 469.128906 639.578125 469.910156 L 640.4375 474.773438 C 640.691406 476.214844 641.953125 477.234375 643.367188 477.234375 C 643.539062 477.234375 643.714844 477.21875 643.886719 477.1875 L 646.648438 476.699219 L 648.796875 488.902344 C 649.050781 490.34375 650.3125 491.363281 651.726562 491.363281 C 651.894531 491.363281 652.070312 491.347656 652.242188 491.316406 L 663.976562 489.246094 L 748.382812 474.363281 C 749.996094 474.074219 751.078125 472.53125 750.792969 470.914062 Z M 750.792969 470.914062" style="stroke:none;fill-rule:nonzero;fill:#ffffff;fill-opacity:1;"/></g></svg>